# xmcd
#
# Track frame offsets:
#	150
#	19085
#	30645
#	50967
#	62002
#	81850
#	97552
#	113214
#	126182
#	140647
#
# Disc length: 2141 seconds
#
# Revision: 1
# Processed by: cddbd v1.5.2PL0 Copyright (c) Steve Scherf et al.
# Submitted via: audiograbber 1.83.01
#
DISCID=83085b0a
DTITLE=Billy Gilman - My Time On Earth
DYEAR=2006
DGENRE=Country
TTITLE0=One Voice
TTITLE1=Little Bitty Pretty One
TTITLE2=God's Alive And Well
TTITLE3=Little Things
TTITLE4=Elisabeth
TTITLE5=What's Forever For
TTITLE6=There's A Hero
TTITLE7=Shamey, Shamey, Shame
TTITLE8='Til I Can Make It On My Own
TTITLE9=My Time On Earth
EXTD=
EXTT0=
EXTT1=
EXTT2=
EXTT3=
EXTT4=
EXTT5=
EXTT6=
EXTT7=
EXTT8=
EXTT9=
PLAYORDER=
